<svg height="512pt" viewBox="0 0 512 512" width="512pt" xmlns="http://www.w3.org/2000/svg"><path d="m175.839844 319.613281h47.699218c-9.292968 10.152344-15.121093 24.589844-15.121093 40.597657 0 16.003906 5.828125 30.441406 15.121093 40.597656h-47.699218c-4.144532 0-7.5 3.355468-7.5 7.5 0 4.140625 3.355468 7.5 7.5 7.5h160.320312c4.144532 0 7.5-3.359375 7.5-7.5 0-4.144532-3.355468-7.5-7.5-7.5h-47.699218c9.292968-10.15625 15.121093-24.59375 15.121093-40.597656 0-16.007813-5.828125-30.445313-15.121093-40.597657h47.699218c4.144532 0 7.5-3.359375 7.5-7.5s-3.355468-7.5-7.5-7.5h-160.320312c-4.144532 0-7.5 3.359375-7.5 7.5s3.355468 7.5 7.5 7.5zm112.742187 40.597657c0 22.382812-14.617187 40.597656-32.582031 40.597656s-32.582031-18.214844-32.582031-40.597656c0-22.386719 14.617187-40.597657 32.582031-40.597657s32.582031 18.210938 32.582031 40.597657zm0 0"/><path d="m368.226562 319.613281h8.015626c4.140624 0 7.5-3.359375 7.5-7.5s-3.359376-7.5-7.5-7.5h-8.015626c-4.140624 0-7.5 3.359375-7.5 7.5s3.355469 7.5 7.5 7.5zm0 0"/><path d="m135.757812 319.613281h8.015626c4.140624 0 7.5-3.359375 7.5-7.5s-3.359376-7.5-7.5-7.5h-8.015626c-4.140624 0-7.5 3.359375-7.5 7.5s3.359376 7.5 7.5 7.5zm0 0"/><path d="m376.242188 400.808594h-8.015626c-4.140624 0-7.5 3.355468-7.5 7.5 0 4.140625 3.359376 7.5 7.5 7.5h8.015626c4.140624 0 7.5-3.359375 7.5-7.5 0-4.144532-3.359376-7.5-7.5-7.5zm0 0"/><path d="m135.757812 415.808594h8.015626c4.140624 0 7.5-3.359375 7.5-7.5 0-4.144532-3.359376-7.5-7.5-7.5h-8.015626c-4.140624 0-7.5 3.355468-7.5 7.5 0 4.140625 3.359376 7.5 7.5 7.5zm0 0"/><path d="m144.289062 360.210938c0 12.976562 10.558594 23.53125 23.535157 23.53125 12.972656 0 23.53125-10.558594 23.53125-23.53125 0-12.976563-10.558594-23.53125-23.53125-23.53125-12.976563 0-23.535157 10.554687-23.535157 23.53125zm23.535157-8.53125c4.703125 0 8.53125 3.824218 8.53125 8.53125 0 4.703124-3.828125 8.53125-8.53125 8.53125-4.707031 0-8.535157-3.828126-8.535157-8.53125 0-4.707032 3.828126-8.53125 8.535157-8.53125zm0 0"/><path d="m320.644531 360.210938c0 12.976562 10.558594 23.53125 23.53125 23.53125 12.976563 0 23.535157-10.558594 23.535157-23.53125 0-12.976563-10.558594-23.53125-23.535157-23.53125-12.972656 0-23.53125 10.554687-23.53125 23.53125zm23.53125-8.53125c4.707031 0 8.535157 3.824218 8.535157 8.53125 0 4.703124-3.828126 8.53125-8.535157 8.53125-4.703125 0-8.53125-3.828126-8.53125-8.53125 0-4.707032 3.828125-8.53125 8.53125-8.53125zm0 0"/><path d="m408.308594 272.546875h-304.617188c-4.140625 0-7.5 3.359375-7.5 7.5v224.453125c0 4.140625 3.359375 7.5 7.5 7.5h304.613282c4.144531 0 7.5-3.359375 7.5-7.5v-224.453125c.003906-4.140625-3.355469-7.5-7.496094-7.5zm-7.5 15v145.324219h-289.617188v-145.324219zm-289.617188 209.453125v-17.0625h241c4.144532 0 7.5-3.359375 7.5-7.5 0-4.144531-3.355468-7.5-7.5-7.5h-241v-17.066406h289.613282v17.066406h-16.542969c-4.144531 0-7.5 3.355469-7.5 7.5 0 4.140625 3.355469 7.5 7.5 7.5h16.542969v17.0625zm0 0"/><path d="m504.5 183.339844c4.140625 0 7.5-3.359375 7.5-7.5v-24.050782c0-2.671874-1.421875-5.144531-3.734375-6.484374l-248.5-144.289063c-2.328125-1.355469-5.203125-1.355469-7.53125 0l-248.5 144.289063c-2.3125 1.339843-3.734375 3.8125-3.734375 6.484374v24.050782c0 4.140625 3.359375 7.5 7.5 7.5h8.53125v249.53125h-8.53125c-4.140625 0-7.5 3.355468-7.5 7.5 0 4.140625 3.359375 7.5 7.5 7.5h64.128906c4.140625 0 7.5-3.359375 7.5-7.5 0-4.144532-3.359375-7.5-7.5-7.5h-8.53125v-249.53125h33.097656v64.644531c0 4.140625 3.355469 7.5 7.5 7.5 4.140626 0 7.5-3.359375 7.5-7.5v-64.644531h17.0625v64.644531c0 4.140625 3.359376 7.5 7.5 7.5 4.144532 0 7.5-3.359375 7.5-7.5v-64.644531h33.097657v64.644531c0 4.140625 3.359375 7.5 7.5 7.5s7.5-3.359375 7.5-7.5v-64.644531h17.066406v64.644531c0 4.140625 3.355469 7.5 7.5 7.5 4.140625 0 7.5-3.359375 7.5-7.5v-64.644531h65.160156v64.644531c0 4.140625 3.355469 7.5 7.5 7.5 4.140625 0 7.5-3.359375 7.5-7.5v-64.644531h17.0625v64.644531c0 4.140625 3.359375 7.5 7.5 7.5s7.5-3.359375 7.5-7.5v-64.644531h33.097657v64.644531c0 4.140625 3.359374 7.5 7.5 7.5 4.140624 0 7.5-3.359375 7.5-7.5v-64.644531h17.066406v64.644531c0 4.140625 3.355468 7.5 7.5 7.5 4.140625 0 7.5-3.359375 7.5-7.5v-64.644531h33.09375v249.53125h-8.53125c-4.140625 0-7.5 3.355468-7.5 7.5 0 4.140625 3.359375 7.5 7.5 7.5h64.128906c4.140625 0 7.5-3.359375 7.5-7.5 0-4.144532-3.359375-7.5-7.5-7.5h-8.53125v-249.53125zm-489.5-27.230469 241-139.9375 241 139.9375v12.230469h-482zm33.097656 276.761719h-17.066406v-249.53125h17.066406zm432.871094 0h-17.066406v-249.53125h17.066406zm0 0"/><path d="m256 128.257812c-10.101562 0-16.546875-4.90625-16.546875-8.28125 0-4.140624-3.359375-7.5-7.5-7.5-4.144531 0-7.5 3.359376-7.5 7.5 0 11.140626 10.09375 20.214844 24.046875 22.640626v1.15625c0 4.144531 3.359375 7.5 7.5 7.5s7.5-3.355469 7.5-7.5v-1.15625c13.953125-2.425782 24.046875-11.5 24.046875-22.640626 0-18.289062-17.636719-23.800781-29.3125-27.449218-15.972656-4.992188-18.785156-8.210938-18.785156-13.132813 0-3.375 6.449219-8.28125 16.550781-8.28125s16.546875 4.90625 16.546875 8.28125c0 4.144531 3.359375 7.5 7.5 7.5s7.5-3.355469 7.5-7.5c0-11.140625-10.09375-20.214843-24.046875-22.640625v-1.15625c0-4.144531-3.359375-7.5-7.5-7.5-4.144531 0-7.5 3.355469-7.5 7.5v1.15625c-13.953125 2.425782-24.050781 11.5-24.050781 22.640625 0 18.289063 17.640625 23.800781 29.3125 27.449219 15.976562 4.992188 18.785156 8.214844 18.785156 13.132812 0 3.375-6.445313 8.28125-16.546875 8.28125zm0 0"/></svg>