<?xml version="1.0" encoding="utf-8"?>
<!-- Generator: Adobe Illustrator 23.0.1, SVG Export Plug-In . SVG Version: 6.00 Build 0)  -->
<svg version="1.1" id="Layer_1" xmlns="http://www.w3.org/2000/svg" xmlns:xlink="http://www.w3.org/1999/xlink" x="0px" y="0px"
	 viewBox="0 0 100 100" style="enable-background:new 0 0 100 100;" xml:space="preserve">
<style type="text/css">
	.st0{fill:#CC4C6E;}
	.st1{fill:#F3B541;}
	.st2{fill:#4CB3AA;}
	.st3{fill:#842C68;}
</style>
<g>
	<path d="M9.5,80.9c0-0.3,0.2-0.4,0.4-0.4h0.6c0.2,0,0.4,0.1,0.5,0.3l2,4.6c0.2,0.5,0.5,1.2,0.5,1.2h0c0,0,0.2-0.7,0.4-1.2l2-4.6
		c0.1-0.2,0.2-0.3,0.5-0.3H17c0.3,0,0.4,0.1,0.4,0.4l0.7,8.4c0,0.3-0.1,0.4-0.4,0.4h-0.4c-0.3,0-0.4-0.1-0.4-0.4l-0.4-5.4
		c-0.1-0.6,0-1.4,0-1.4h0c0,0-0.3,0.8-0.5,1.4l-1.7,3.8C14.1,87.9,14,88,13.7,88h-0.4c-0.2,0-0.4-0.1-0.5-0.3l-1.7-3.8
		c-0.2-0.5-0.5-1.4-0.5-1.4h0c0,0,0,0.8,0,1.4l-0.4,5.4c0,0.3-0.2,0.4-0.4,0.4H9.3c-0.3,0-0.4-0.2-0.4-0.4L9.5,80.9z"/>
	<path d="M22.3,80.8c0.1-0.2,0.2-0.4,0.5-0.4h0.6c0.2,0,0.4,0.1,0.5,0.4l3,8.4c0.1,0.3,0,0.5-0.4,0.5h-0.4c-0.2,0-0.4-0.1-0.5-0.4
		L24.8,87h-3.5l-0.8,2.3c-0.1,0.2-0.2,0.4-0.5,0.4h-0.4c-0.3,0-0.5-0.2-0.4-0.5L22.3,80.8z M24.5,85.9l-1-2.9
		c-0.2-0.5-0.4-1.3-0.4-1.3h0c0,0-0.2,0.8-0.4,1.3l-1,2.9H24.5z"/>
	<path d="M29.6,85.8L26.8,81c-0.2-0.3,0-0.5,0.3-0.5h0.5c0.2,0,0.4,0.1,0.5,0.3l1.5,2.7c0.3,0.5,0.6,1.2,0.6,1.2h0
		c0,0,0.3-0.6,0.6-1.2l1.5-2.7c0.1-0.2,0.3-0.3,0.5-0.3h0.5c0.3,0,0.5,0.2,0.3,0.5l-2.8,4.8v3.5c0,0.3-0.2,0.4-0.4,0.4H30
		c-0.3,0-0.4-0.1-0.4-0.4V85.8z"/>
	<path d="M35.1,80.9c0-0.3,0.1-0.4,0.4-0.4H36c0.2,0,0.4,0.1,0.5,0.3l3.9,5.7c0.3,0.5,0.8,1.3,0.8,1.3h0c0,0-0.1-0.8-0.1-1.3v-5.6
		c0-0.3,0.2-0.4,0.4-0.4H42c0.3,0,0.4,0.1,0.4,0.4v8.3c0,0.3-0.1,0.4-0.4,0.4h-0.5c-0.2,0-0.4-0.1-0.5-0.3l-3.9-5.7
		c-0.3-0.5-0.8-1.3-0.8-1.3h0c0,0,0.1,0.8,0.1,1.3v5.5c0,0.3-0.1,0.4-0.4,0.4h-0.4c-0.3,0-0.4-0.1-0.4-0.4V80.9z"/>
	<path d="M49,80.3c2.7,0,4.7,2,4.7,4.7c0,2.7-2,4.8-4.7,4.8s-4.7-2.1-4.7-4.8C44.2,82.3,46.2,80.3,49,80.3z M49,88.6
		c2,0,3.4-1.6,3.4-3.6c0-2-1.4-3.5-3.4-3.5c-2,0-3.4,1.5-3.4,3.5C45.6,87,47,88.6,49,88.6z"/>
	<path d="M59.6,80.3c2.7,0,4.7,2,4.7,4.7c0,2.7-2,4.8-4.7,4.8s-4.7-2.1-4.7-4.8C54.9,82.3,56.8,80.3,59.6,80.3z M59.6,88.6
		c2,0,3.4-1.6,3.4-3.6c0-2-1.4-3.5-3.4-3.5c-2,0-3.4,1.5-3.4,3.5C56.2,87,57.6,88.6,59.6,88.6z"/>
	<path d="M67.6,81.6h-2.7c-0.3,0-0.4-0.2-0.4-0.4v-0.3c0-0.3,0.1-0.4,0.4-0.4h6.8c0.3,0,0.4,0.1,0.4,0.4v0.3c0,0.3-0.1,0.4-0.4,0.4
		h-2.7v7.6c0,0.3-0.2,0.4-0.4,0.4H68c-0.3,0-0.4-0.1-0.4-0.4V81.6z"/>
	<path d="M73.2,80.9c0-0.3,0.1-0.4,0.4-0.4h0.4c0.3,0,0.4,0.1,0.4,0.4v3.6h4.8v-3.6c0-0.3,0.2-0.4,0.4-0.4h0.4
		c0.3,0,0.4,0.1,0.4,0.4v8.3c0,0.3-0.1,0.4-0.4,0.4h-0.4c-0.3,0-0.4-0.1-0.4-0.4v-3.6h-4.8v3.6c0,0.3-0.1,0.4-0.4,0.4h-0.4
		c-0.3,0-0.4-0.1-0.4-0.4V80.9z"/>
</g>
<path class="st0" d="M42.5,69.2L42.5,69.2c-4.9,0.8-9.5-2.5-10.4-7.4l-7-41.2c-0.8-4.9,2.5-9.5,7.4-10.4l0,0
	c4.9-0.8,9.5,2.5,10.4,7.4l7,41.2C50.7,63.8,47.4,68.4,42.5,69.2z"/>
<path class="st0" d="M67.5,69.2L67.5,69.2c-4.9,0.8-9.5-2.5-10.4-7.4l-7-41.2c-0.8-4.9,2.5-9.5,7.4-10.4l0,0
	c4.9-0.8,9.5,2.5,10.4,7.4l7,41.2C75.7,63.8,72.4,68.4,67.5,69.2z"/>
<path class="st1" d="M12.3,68.6L12.3,68.6c-4.5-2-6.6-7.3-4.6-11.9l18.1-41.2c2-4.5,7.3-6.6,11.9-4.6l0,0c4.5,2,6.6,7.3,4.6,11.9
	L24.1,64C22.1,68.6,16.8,70.6,12.3,68.6z"/>
<path class="st2" d="M37.3,68.6L37.3,68.6c-4.5-2-6.6-7.3-4.6-11.9l18.1-41.2c2-4.5,7.3-6.6,11.9-4.6l0,0c4.5,2,6.6,7.3,4.6,11.9
	L49.1,64C47.1,68.6,41.8,70.6,37.3,68.6z"/>
<path class="st3" d="M62.3,68.6L62.3,68.6c-4.5-2-6.6-7.3-4.6-11.9l18.1-41.2c2-4.5,7.3-6.6,11.9-4.6l0,0c4.5,2,6.6,7.3,4.6,11.9
	L74.2,64C72.2,68.6,66.9,70.6,62.3,68.6z"/>
</svg>
