<?xml version="1.0" encoding="utf-8"?>
<!-- Generator: Adobe Illustrator 23.0.1, SVG Export Plug-In . SVG Version: 6.00 Build 0)  -->
<svg version="1.1" id="Layer_1" xmlns="http://www.w3.org/2000/svg" xmlns:xlink="http://www.w3.org/1999/xlink" x="0px" y="0px"
	 viewBox="0 0 300.6 59.2" style="enable-background:new 0 0 300.6 59.2;" xml:space="preserve">
<style type="text/css">
	.st0{fill:#CC4C6E;}
	.st1{fill:#F3B541;}
	.st2{fill:#4CB3AA;}
	.st3{fill:#842C68;}
</style>
<path class="st0" d="M35.6,59.1L35.6,59.1c-4.9,0.8-9.5-2.5-10.4-7.4l-7-41.2C17.4,5.6,20.7,1,25.6,0.1l0,0
	c4.9-0.8,9.5,2.5,10.4,7.4l7,41.2C43.8,53.6,40.5,58.2,35.6,59.1z"/>
<path class="st0" d="M60.7,59.1L60.7,59.1c-4.9,0.8-9.5-2.5-10.4-7.4l-7-41.2C42.4,5.6,45.7,1,50.6,0.1l0,0
	c4.9-0.8,9.5,2.5,10.4,7.4l7,41.2C68.9,53.6,65.6,58.2,60.7,59.1z"/>
<path class="st1" d="M5.4,58.4L5.4,58.4c-4.5-2-6.6-7.3-4.6-11.9L18.9,5.4c2-4.5,7.3-6.6,11.9-4.6l0,0c4.5,2,6.6,7.3,4.6,11.9
	L17.2,53.8C15.2,58.4,9.9,60.4,5.4,58.4z"/>
<path class="st2" d="M30.4,58.4L30.4,58.4c-4.5-2-6.6-7.3-4.6-11.9L43.9,5.4c2-4.5,7.3-6.6,11.9-4.6l0,0c4.5,2,6.6,7.3,4.6,11.9
	L42.3,53.8C40.2,58.4,34.9,60.4,30.4,58.4z"/>
<path class="st3" d="M55.4,58.4L55.4,58.4c-4.5-2-6.6-7.3-4.6-11.9L69,5.4c2-4.5,7.3-6.6,11.9-4.6l0,0c4.5,2,6.6,7.3,4.6,11.9
	L67.3,53.8C65.3,58.4,60,60.4,55.4,58.4z"/>
<g>
	<path d="M101.4,18.5c0-0.4,0.3-0.6,0.6-0.6h0.4c0.4,0,0.6,0.1,0.7,0.5l7.4,15.9c0.6,1.3,1.3,2.9,1.3,2.9h0.1c0,0,0.7-1.7,1.3-2.9
		l7.4-15.9c0.1-0.3,0.4-0.5,0.7-0.5h0.4c0.4,0,0.6,0.2,0.6,0.6l2,24.8c0,0.4-0.2,0.7-0.6,0.7h-0.3c-0.4,0-0.6-0.2-0.6-0.6l-1.6-19.3
		c-0.1-1.3-0.1-3.5-0.1-3.5h-0.1c0,0-0.7,2.2-1.3,3.5L113,38.5c-0.1,0.3-0.4,0.5-0.7,0.5h-0.6c-0.4,0-0.6-0.1-0.7-0.5l-6.7-14.4
		c-0.6-1.2-1.4-3.5-1.4-3.5h-0.1c0,0,0,2.3-0.1,3.5L101,43.5c0,0.4-0.3,0.6-0.6,0.6H100c-0.4,0-0.6-0.2-0.6-0.7L101.4,18.5z"/>
	<path d="M137.5,18.5c0.1-0.4,0.4-0.5,0.7-0.5h0.7c0.3,0,0.6,0.1,0.7,0.5l9.3,24.8c0.1,0.4,0,0.7-0.5,0.7H148
		c-0.3,0-0.6-0.1-0.7-0.5L144,35H133l-3.2,8.5c-0.1,0.4-0.4,0.5-0.7,0.5h-0.4c-0.5,0-0.7-0.3-0.5-0.7L137.5,18.5z M143.5,33.5
		l-4-10.6c-0.4-1.1-1-3.1-1-3.1h-0.1c0,0-0.6,2-1,3.1l-4,10.6H143.5z"/>
	<path d="M157.4,32.7l-8.4-14c-0.3-0.4-0.1-0.7,0.4-0.7h0.4c0.3,0,0.6,0.1,0.7,0.4l5.9,9.9c0.7,1.3,1.6,2.9,1.6,2.9h0.1
		c0,0,0.8-1.7,1.6-2.9l5.9-9.9c0.2-0.3,0.4-0.4,0.7-0.4h0.4c0.5,0,0.7,0.3,0.4,0.7l-8.4,14v10.7c0,0.4-0.2,0.6-0.6,0.6H158
		c-0.4,0-0.6-0.2-0.6-0.6V32.7z"/>
	<path d="M172.2,18.6c0-0.4,0.2-0.6,0.6-0.6h0.4c0.3,0,0.6,0.1,0.8,0.4l14.6,20.1c0.9,1.2,2.1,3.3,2.1,3.3h0.1c0,0-0.2-2-0.2-3.3
		V18.6c0-0.4,0.2-0.6,0.6-0.6h0.3c0.4,0,0.6,0.2,0.6,0.6v24.8c0,0.4-0.2,0.6-0.6,0.6h-0.4c-0.3,0-0.6-0.1-0.8-0.4l-14.6-20.1
		c-0.9-1.2-2.1-3.3-2.1-3.3h-0.1c0,0,0.2,2,0.2,3.3v19.8c0,0.4-0.2,0.6-0.6,0.6h-0.3c-0.4,0-0.6-0.2-0.6-0.6V18.6z"/>
	<path d="M211.3,17.5c7.5,0,13.2,5.8,13.2,13.3c0,7.7-5.7,13.7-13.2,13.7s-13.2-6-13.2-13.7C198.1,23.3,203.8,17.5,211.3,17.5z
		 M211.3,43c6.6,0,11.5-5.3,11.5-12.2c0-6.7-4.9-11.8-11.5-11.8s-11.5,5.1-11.5,11.8C199.8,37.7,204.7,43,211.3,43z"/>
	<path d="M241.8,17.5c7.5,0,13.2,5.8,13.2,13.3c0,7.7-5.7,13.7-13.2,13.7c-7.5,0-13.2-6-13.2-13.7C228.6,23.3,234.3,17.5,241.8,17.5
		z M241.8,43c6.6,0,11.5-5.3,11.5-12.2c0-6.7-4.9-11.8-11.5-11.8c-6.6,0-11.5,5.1-11.5,11.8C230.3,37.7,235.2,43,241.8,43z"/>
	<path d="M265.4,19.4h-9.1c-0.4,0-0.6-0.2-0.6-0.6v-0.2c0-0.4,0.2-0.6,0.6-0.6h19.8c0.4,0,0.6,0.2,0.6,0.6v0.2
		c0,0.4-0.2,0.6-0.6,0.6H267v24c0,0.4-0.2,0.6-0.6,0.6H266c-0.4,0-0.6-0.2-0.6-0.6V19.4z"/>
	<path d="M280.8,18.6c0-0.4,0.2-0.6,0.6-0.6h0.3c0.4,0,0.6,0.2,0.6,0.6v11.6H299V18.6c0-0.4,0.2-0.6,0.6-0.6h0.3
		c0.4,0,0.6,0.2,0.6,0.6v24.8c0,0.4-0.2,0.6-0.6,0.6h-0.3c-0.4,0-0.6-0.2-0.6-0.6V31.7h-16.6v11.7c0,0.4-0.2,0.6-0.6,0.6h-0.3
		c-0.4,0-0.6-0.2-0.6-0.6V18.6z"/>
</g>
</svg>
