<?xml version="1.0" encoding="utf-8"?>
<!-- Generator: Adobe Illustrator 23.0.1, SVG Export Plug-In . SVG Version: 6.00 Build 0)  -->
<svg version="1.1" id="Arrow_1_" xmlns="http://www.w3.org/2000/svg" xmlns:xlink="http://www.w3.org/1999/xlink" x="0px" y="0px"
	 viewBox="0 0 500 500" style="enable-background:new 0 0 500 500;" xml:space="preserve">
<g>
	<path d="M145.8,229.1c23,0,41.7-18.7,41.7-41.7s-18.7-41.7-41.7-41.7s-41.7,18.7-41.7,41.7S122.8,229.1,145.8,229.1z"/>
	<path d="M458.3,41.7H41.7C18.7,41.7,0,60.3,0,83.4v333.3c0,23,18.7,41.7,41.7,41.7h416.7c23,0,41.7-18.7,41.7-41.7V83.4
		C500,60.3,481.3,41.7,458.3,41.7z M437.5,291.6l-62.8-62.8c0,0-20.5-20.5-42,1c-35.8,35.7-103.5,103.5-103.5,103.5L186.9,291
		c0,0-21.1-19.3-41,0.6c-23.1,23.1-60.2,60.2-83.3,83.3V104.1h375L437.5,291.6L437.5,291.6z"/>
</g>
</svg>
