<?xml version="1.0" encoding="utf-8"?>
<!-- Generator: Adobe Illustrator 23.0.1, SVG Export Plug-In . SVG Version: 6.00 Build 0)  -->
<svg version="1.1" id="Layer_1" xmlns="http://www.w3.org/2000/svg" xmlns:xlink="http://www.w3.org/1999/xlink" x="0px" y="0px"
	 viewBox="0 0 250 250" style="enable-background:new 0 0 250 250;" xml:space="preserve">
<style type="text/css">
	.st0{fill:#FFFFFF;}
</style>
<path class="st0" d="M119.6,125.9H98.5c-7.1,0-12.8-5.7-12.8-12.8v-12.4h21.1v12.4c0,2.1,0.5,4,1.4,5.8c0.2,0.5,0.5,0.9,0.8,1.4
	c0.1,0.1,0.2,0.3,0.3,0.4c0.4,0.5,0.8,1,1.3,1.5c0.1,0.1,0.3,0.3,0.4,0.4c0.2,0.1,0.3,0.3,0.5,0.4c0.1,0.1,0.3,0.2,0.4,0.3
	c0.2,0.1,0.4,0.3,0.5,0.4c0.2,0.1,0.3,0.2,0.5,0.3c0.3,0.2,0.6,0.4,1,0.5c0.4,0.2,0.8,0.4,1.2,0.5c0.1,0,0.2,0.1,0.3,0.1
	c0.1,0,0.2,0.1,0.4,0.1c0.2,0,0.3,0.1,0.5,0.1c0.3,0.1,0.5,0.1,0.8,0.2c0.1,0,0.3,0.1,0.4,0.1c0.1,0,0.2,0,0.3,0
	c0.2,0,0.3,0,0.5,0.1c0.1,0,0.2,0,0.3,0c0.2,0,0.3,0,0.5,0C119.2,125.9,119.4,125.9,119.6,125.9z"/>
<path class="st0" d="M127.9,106v19.9c-4.6,0-8.3,0-8.3,0c-0.2,0-0.4,0-0.7,0c-0.2,0-0.3,0-0.5,0c-0.1,0-0.2,0-0.3,0
	c-0.2,0-0.3,0-0.5-0.1c-0.1,0-0.2,0-0.3,0c-0.1,0-0.3,0-0.4-0.1c-0.3,0-0.5-0.1-0.8-0.2c-0.2,0-0.3-0.1-0.5-0.1
	c-0.1,0-0.2-0.1-0.4-0.1c-0.1,0-0.2-0.1-0.3-0.1c-0.4-0.2-0.8-0.3-1.2-0.5c-0.3-0.2-0.7-0.3-1-0.5c-0.2-0.1-0.4-0.2-0.5-0.3
	c-0.2-0.1-0.4-0.3-0.5-0.4c-0.1-0.1-0.3-0.2-0.4-0.3c-0.2-0.1-0.3-0.3-0.5-0.4c-0.1-0.1-0.3-0.3-0.4-0.4c-0.5-0.5-0.9-1-1.3-1.5
	c-0.1-0.1-0.2-0.3-0.3-0.4c-0.3-0.4-0.6-0.9-0.8-1.4h7C122.2,118.8,127.9,113.1,127.9,106z"/>
<path class="st0" d="M161.6,151.8h-12.5c-4.6,0-8.3,0-8.3,0c-7.1,0-12.8-5.7-12.8-12.8v-38.3h21.1v11.7c0,0,0,0.2,0,0.6v25.7
	C149.1,147.7,151,150.5,161.6,151.8z"/>
<path class="st0" d="M115.1,76.6h21.1c7.1,0,12.8,5.7,12.8,12.8v12.4h-21.1V89.4c0-2.1-0.5-4-1.4-5.8c-0.2-0.5-0.5-0.9-0.8-1.4
	c-0.1-0.1-0.2-0.3-0.3-0.4c-0.4-0.5-0.8-1-1.3-1.5c-0.1-0.1-0.3-0.3-0.4-0.4c-0.2-0.1-0.3-0.3-0.5-0.4c-0.1-0.1-0.3-0.2-0.4-0.3
	c-0.2-0.1-0.4-0.3-0.5-0.4c-0.2-0.1-0.3-0.2-0.5-0.3c-0.3-0.2-0.6-0.4-1-0.5c-0.4-0.2-0.8-0.4-1.2-0.5c-0.1,0-0.2-0.1-0.3-0.1
	c-0.1,0-0.2-0.1-0.4-0.1c-0.2,0-0.3-0.1-0.5-0.1c-0.3-0.1-0.5-0.1-0.8-0.2c-0.1,0-0.3-0.1-0.4-0.1c-0.1,0-0.2,0-0.3,0
	c-0.2,0-0.3,0-0.5-0.1c-0.1,0-0.2,0-0.3,0c-0.2,0-0.3,0-0.5,0C115.6,76.6,115.4,76.6,115.1,76.6z"/>
<path class="st0" d="M106.8,96.4V76.6c4.6,0,8.3,0,8.3,0c0.2,0,0.4,0,0.7,0c0.2,0,0.3,0,0.5,0c0.1,0,0.2,0,0.3,0
	c0.2,0,0.3,0,0.5,0.1c0.1,0,0.2,0,0.3,0c0.1,0,0.3,0,0.4,0.1c0.3,0,0.5,0.1,0.8,0.2c0.2,0,0.3,0.1,0.5,0.1c0.1,0,0.2,0.1,0.4,0.1
	c0.1,0,0.2,0.1,0.3,0.1c0.4,0.2,0.8,0.3,1.2,0.5c0.3,0.2,0.7,0.3,1,0.5c0.2,0.1,0.4,0.2,0.5,0.3c0.2,0.1,0.4,0.3,0.5,0.4
	c0.1,0.1,0.3,0.2,0.4,0.3c0.2,0.1,0.3,0.3,0.5,0.4c0.1,0.1,0.3,0.3,0.4,0.4c0.5,0.5,0.9,1,1.3,1.5c0.1,0.1,0.2,0.3,0.3,0.4
	c0.3,0.4,0.6,0.9,0.8,1.4h-7C112.5,83.6,106.8,89.3,106.8,96.4z"/>
<path class="st0" d="M73.2,50.6h12.5c4.6,0,8.3,0,8.3,0c7.1,0,12.8,5.7,12.8,12.8v38.3H85.7V90c0,0,0-0.2,0-0.6V63.6
	C85.7,54.8,83.8,51.9,73.2,50.6z"/>
<g>
	<path class="st0" d="M34.3,171.2h2.9v2.9h-2.9V171.2z M34.3,177.1h2.9V192h-2.9V177.1z"/>
	<path class="st0" d="M41.7,177.1h2.8v2c0,0.6-0.1,1.1-0.1,1.1h0.1c0.6-1.3,2.4-3.4,5.6-3.4c3.5,0,5.1,1.9,5.1,5.7v9.6h-2.9v-8.9
		c0-2.1-0.4-3.7-2.8-3.7c-2.3,0-4.1,1.5-4.7,3.7c-0.2,0.6-0.2,1.3-0.2,2v7h-2.9V177.1z"/>
	<path class="st0" d="M59.6,188.2c0,0,1.7,1.7,4.3,1.7c1.2,0,2.5-0.6,2.5-1.9c0-2.7-7.7-2.2-7.7-7c0-2.7,2.4-4.2,5.4-4.2
		c3.3,0,4.8,1.7,4.8,1.7l-1.1,2.2c0,0-1.3-1.3-3.7-1.3c-1.2,0-2.4,0.5-2.4,1.8c0,2.7,7.7,2.1,7.7,7c0,2.5-2.1,4.3-5.4,4.3
		c-3.7,0-5.7-2.2-5.7-2.2L59.6,188.2z"/>
	<path class="st0" d="M73.3,179.6h-1.9v-2.3h2V173h2.8v4.3h3.6v2.3h-3.6v6.6c0,3,2.1,3.4,3.2,3.4c0.4,0,0.7-0.1,0.7-0.1v2.5
		c0,0-0.4,0.1-1,0.1c-1.9,0-5.7-0.6-5.7-5.6V179.6z"/>
	<path class="st0" d="M83.2,177.1H86v2.6c0,0.6-0.1,1.1-0.1,1.1H86c0.7-2.2,2.4-3.9,4.7-3.9c0.4,0,0.7,0.1,0.7,0.1v2.8
		c0,0-0.4-0.1-0.8-0.1c-1.8,0-3.5,1.3-4.2,3.5c-0.3,0.9-0.4,1.8-0.4,2.7v6.1h-2.9V177.1z"/>
	<path class="st0" d="M94.1,177.1h2.9v8.9c0,2.1,0.4,3.7,2.8,3.7c3,0,4.8-2.7,4.8-5.6v-7h2.9V192h-2.8v-2c0-0.6,0.1-1.1,0.1-1.1
		h-0.1c-0.6,1.5-2.6,3.4-5.5,3.4c-3.4,0-5.1-1.8-5.1-5.7V177.1z"/>
	<path class="st0" d="M118.8,176.8c3.7,0,5.6,2.2,5.6,2.2l-1.4,2c0,0-1.6-1.7-4.1-1.7c-3,0-5.2,2.2-5.2,5.3c0,3,2.2,5.4,5.3,5.4
		c2.8,0,4.6-2,4.6-2l1.1,2.1c0,0-2.1,2.4-6,2.4c-4.7,0-8-3.3-8-7.8C110.8,180.2,114.1,176.8,118.8,176.8z"/>
	<path class="st0" d="M128.6,179.6h-1.9v-2.3h2V173h2.8v4.3h3.6v2.3h-3.6v6.6c0,3,2.1,3.4,3.2,3.4c0.4,0,0.7-0.1,0.7-0.1v2.5
		c0,0-0.4,0.1-1,0.1c-1.9,0-5.7-0.6-5.7-5.6V179.6z"/>
	<path class="st0" d="M145.5,176.8c4.5,0,8,3.3,8,7.8c0,4.5-3.6,7.8-8,7.8s-8-3.3-8-7.8C137.5,180,141.1,176.8,145.5,176.8z
		 M145.5,189.9c2.8,0,5.1-2.2,5.1-5.4c0-3.1-2.3-5.3-5.1-5.3c-2.8,0-5.1,2.2-5.1,5.3C140.4,187.7,142.7,189.9,145.5,189.9z"/>
	<path class="st0" d="M157,177.1h2.8v2.6c0,0.6-0.1,1.1-0.1,1.1h0.1c0.7-2.2,2.4-3.9,4.7-3.9c0.4,0,0.7,0.1,0.7,0.1v2.8
		c0,0-0.4-0.1-0.8-0.1c-1.8,0-3.5,1.3-4.2,3.5c-0.3,0.9-0.4,1.8-0.4,2.7v6.1H157V177.1z"/>
	<path class="st0" d="M168.6,171.2h2.9v9.1h10.8v-9.1h2.9V192h-2.9v-9.1h-10.8v9.1h-2.9V171.2z"/>
	<path class="st0" d="M200.2,170.9c6,0,10.7,4.6,10.7,10.6c0,2.6-0.9,5-2.4,6.9l2.5,2.4l-1.7,1.8l-2.4-2.4c-1.8,1.4-4.1,2.2-6.6,2.2
		c-6,0-10.7-4.8-10.7-10.9C189.5,175.5,194.2,170.9,200.2,170.9z M200.2,189.7c1.6,0,3.3-0.6,4.5-1.5l-2.4-2.4l1.7-1.8l2.4,2.4
		c0.9-1.3,1.5-3,1.5-4.9c0-4.6-3.4-8-7.7-8c-4.3,0-7.7,3.4-7.7,8C192.5,186.2,195.9,189.7,200.2,189.7z"/>
</g>
</svg>
