<svg id="Layer_1" data-name="Layer 1" xmlns="http://www.w3.org/2000/svg" viewBox="0 0 158 23"><defs><style>.cls-1{fill:#42444c;}</style></defs><title>Logo</title><path class="cls-1" d="M36.36,9.49A1.06,1.06,0,0,1,35.3,8.43v-5a1.06,1.06,0,1,1,2.13,0v5A1.06,1.06,0,0,1,36.36,9.49Z"/><path class="cls-1" d="M79.68,21.52H79.5a8,8,0,0,1-6-2.68,1.06,1.06,0,0,1,1.67-1.31,5.83,5.83,0,0,0,4.34,1.87,4.94,4.94,0,0,0,3.79-1.27,2.81,2.81,0,0,0,.59-2.37c-.27-1.83-2.54-2.61-4.37-3.24l-.21-.07a1.06,1.06,0,0,1,.69-2l.21.07c2.12.73,5.33,1.83,5.78,4.95a4.91,4.91,0,0,1-1.1,4.08A6.8,6.8,0,0,1,79.68,21.52Z"/><path class="cls-1" d="M138.6,21.5a1.06,1.06,0,0,1-.91-.52l-4-6.76a1.06,1.06,0,0,1,.45-1.5s3.1-1.55,3.1-4.2-1.52-4-4.51-4h-4.83a1.06,1.06,0,0,1,0-2.13h4.83c4.16,0,6.64,2.31,6.64,6.17A6.94,6.94,0,0,1,136,14l3.49,5.85a1.06,1.06,0,0,1-.91,1.61Z"/><path class="cls-1" d="M119.17,16.32h-9.44a1.06,1.06,0,0,1,0-2.13h9.44a1.06,1.06,0,1,1,0,2.13Z"/><path class="cls-1" d="M7.08,12.5a1.07,1.07,0,0,1-.35-.06l-.54-.18c-2-.66-4.92-1.65-5.12-4.63A4.84,4.84,0,0,1,2.34,3.86,6.19,6.19,0,0,1,7,2.17,7.22,7.22,0,0,1,12.44,4.6a1.06,1.06,0,0,1-1.67,1.31A5.09,5.09,0,0,0,7,4.3a4.14,4.14,0,0,0-3.1,1A2.74,2.74,0,0,0,3.2,7.49c.1,1.44,1.65,2.08,3.67,2.75l.56.19a1.06,1.06,0,0,1-.35,2.07Z"/><path class="cls-1" d="M30.08,21.5a1.06,1.06,0,0,1-.88-.46L22.24,11A1.06,1.06,0,0,1,24,9.77l7,10.06a1.06,1.06,0,0,1-.87,1.67Z"/><path class="cls-1" d="M18.64,21.5a1.06,1.06,0,0,1-1.06-1.06v-6a1.06,1.06,0,1,1,2.13,0v6A1.06,1.06,0,0,1,18.64,21.5Z"/><path class="cls-1" d="M44,21.5A1.06,1.06,0,0,1,43,20.43V3.4a1.06,1.06,0,1,1,2.13,0v17A1.06,1.06,0,0,1,44,21.5Z"/><path class="cls-1" d="M69.19,21.5H59.27a1.06,1.06,0,1,1,0-2.13h9.92a1.06,1.06,0,0,1,0,2.13Z"/><path class="cls-1" d="M101,21.5a1.06,1.06,0,0,1-1.06-1.06V3.4a1.06,1.06,0,1,1,2.13,0v17A1.06,1.06,0,0,1,101,21.5Z"/><path class="cls-1" d="M101,13.05H95.67a1.06,1.06,0,1,1,0-2.13H101a1.06,1.06,0,1,1,0,2.13Z"/><path class="cls-1" d="M107.46,21.5a1.06,1.06,0,0,1-1-1.48l7.13-17a1.06,1.06,0,0,1,2,.82l-7.13,17A1.06,1.06,0,0,1,107.46,21.5Z"/><path class="cls-1" d="M156.24,21.5H145.79a1.06,1.06,0,0,1-1.06-1.06V11.92a1.06,1.06,0,0,1,2.13,0v7.45h9.39a1.06,1.06,0,0,1,0,2.13Z"/><path class="cls-1" d="M7.09,21.52H6.9a8,8,0,0,1-6-2.68A1.06,1.06,0,0,1,2.6,17.53a5.83,5.83,0,0,0,4.34,1.87,4.94,4.94,0,0,0,3.79-1.27,2.81,2.81,0,0,0,.59-2.37c-.27-1.83-2.54-2.61-4.37-3.24l-.21-.07a1.06,1.06,0,0,1,.69-2l.21.07c2.12.73,5.33,1.83,5.78,4.95a4.91,4.91,0,0,1-1.1,4.08A6.8,6.8,0,0,1,7.09,21.52Z"/><path class="cls-1" d="M79.68,12.5a1.07,1.07,0,0,1-.35-.06l-.54-.18c-2-.66-4.92-1.65-5.12-4.63a4.84,4.84,0,0,1,1.26-3.78,6.17,6.17,0,0,1,4.68-1.69A7.22,7.22,0,0,1,85,4.6a1.06,1.06,0,0,1-1.67,1.31A5.09,5.09,0,0,0,79.58,4.3a4.09,4.09,0,0,0-3.1,1,2.74,2.74,0,0,0-.68,2.17c.1,1.44,1.65,2.08,3.67,2.75l.56.19a1.06,1.06,0,0,1-.35,2.07Z"/><path class="cls-1" d="M54,21.5H44a1.06,1.06,0,0,1,0-2.13H54a1.06,1.06,0,0,1,0,2.13Z"/><path class="cls-1" d="M36.36,21.5a1.06,1.06,0,0,1-1.06-1.06v-12a1.06,1.06,0,1,1,2.13,0v12A1.06,1.06,0,0,1,36.36,21.5Z"/><path class="cls-1" d="M59.27,21.5a1.06,1.06,0,0,1-1.06-1.06V3.4a1.06,1.06,0,0,1,2.13,0v17A1.06,1.06,0,0,1,59.27,21.5Z"/><path class="cls-1" d="M90.32,21.5a1.06,1.06,0,0,1-1.06-1.06V3.4a1.06,1.06,0,1,1,2.13,0v17A1.06,1.06,0,0,1,90.32,21.5Z"/><path class="cls-1" d="M95.67,13.05H90.32a1.06,1.06,0,1,1,0-2.13h5.34a1.06,1.06,0,1,1,0,2.13Z"/><path class="cls-1" d="M121.72,21.5a1.06,1.06,0,0,1-1-.65l-7.13-17a1.06,1.06,0,1,1,2-.82l7.13,17a1.07,1.07,0,0,1-1,1.48Z"/><path class="cls-1" d="M127.85,21.5a1.06,1.06,0,0,1-1.06-1.06V3.4a1.06,1.06,0,1,1,2.13,0v17A1.06,1.06,0,0,1,127.85,21.5Z"/><path class="cls-1" d="M134.56,14.74H128.4a1.06,1.06,0,0,1,0-2.13h6.16a1.06,1.06,0,0,1,0,2.13Z"/><path class="cls-1" d="M154.74,13h-8.95a1.06,1.06,0,0,1-1.06-1.06V3.4a1.06,1.06,0,0,1,1.06-1.06h10.45a1.06,1.06,0,0,1,0,2.13h-9.39v6.39h7.88a1.06,1.06,0,0,1,0,2.13Z"/><path class="cls-1" d="M18.64,15.46a1.06,1.06,0,0,1-1.06-1.06V3.4a1.06,1.06,0,1,1,2.13,0v8.39l9-9.14a1.06,1.06,0,1,1,1.52,1.49l-10.78,11A1.06,1.06,0,0,1,18.64,15.46Z"/></svg>