<?xml version="1.0" encoding="utf-8"?>
<!-- Generator: Adobe Illustrator 23.0.1, SVG Export Plug-In . SVG Version: 6.00 Build 0)  -->
<svg version="1.1" id="Layer_1" xmlns="http://www.w3.org/2000/svg" xmlns:xlink="http://www.w3.org/1999/xlink" x="0px" y="0px"
	 viewBox="0 0 405.8 102.2" style="enable-background:new 0 0 405.8 102.2;" xml:space="preserve">
<style type="text/css">
	.st0{fill:#FFFFFF;}
</style>
<path class="st0" d="M46.4,75.3H25.3c-7.1,0-12.8-5.7-12.8-12.8V50.1h21.1v12.4c0,2.1,0.5,4,1.4,5.8c0.2,0.5,0.5,0.9,0.8,1.4
	c0.1,0.1,0.2,0.3,0.3,0.4c0.4,0.5,0.8,1,1.3,1.5c0.1,0.1,0.3,0.3,0.4,0.4c0.2,0.1,0.3,0.3,0.5,0.4c0.1,0.1,0.3,0.2,0.4,0.3
	c0.2,0.1,0.4,0.3,0.5,0.4c0.2,0.1,0.3,0.2,0.5,0.3c0.3,0.2,0.6,0.4,1,0.5c0.4,0.2,0.8,0.4,1.2,0.5c0.1,0,0.2,0.1,0.3,0.1
	c0.1,0,0.2,0.1,0.4,0.1c0.2,0,0.3,0.1,0.5,0.1c0.3,0.1,0.5,0.1,0.8,0.2c0.1,0,0.3,0.1,0.4,0.1c0.1,0,0.2,0,0.3,0
	c0.2,0,0.3,0,0.5,0.1c0.1,0,0.2,0,0.3,0c0.2,0,0.3,0,0.5,0C46,75.3,46.2,75.3,46.4,75.3z"/>
<path class="st0" d="M54.8,55.4v19.9c-4.6,0-8.3,0-8.3,0c-0.2,0-0.4,0-0.7,0c-0.2,0-0.3,0-0.5,0c-0.1,0-0.2,0-0.3,0
	c-0.2,0-0.3,0-0.5-0.1c-0.1,0-0.2,0-0.3,0c-0.1,0-0.3,0-0.4-0.1c-0.3,0-0.5-0.1-0.8-0.2c-0.2,0-0.3-0.1-0.5-0.1
	c-0.1,0-0.2-0.1-0.4-0.1c-0.1,0-0.2-0.1-0.3-0.1c-0.4-0.2-0.8-0.3-1.2-0.5c-0.3-0.2-0.7-0.3-1-0.5c-0.2-0.1-0.4-0.2-0.5-0.3
	c-0.2-0.1-0.4-0.3-0.5-0.4c-0.1-0.1-0.3-0.2-0.4-0.3c-0.2-0.1-0.3-0.3-0.5-0.4c-0.1-0.1-0.3-0.3-0.4-0.4c-0.5-0.5-0.9-1-1.3-1.5
	c-0.1-0.1-0.2-0.3-0.3-0.4c-0.3-0.4-0.6-0.9-0.8-1.4h7C49,68.2,54.8,62.5,54.8,55.4z"/>
<path class="st0" d="M88.4,101.2H75.9c-4.6,0-8.3,0-8.3,0c-7.1,0-12.8-5.7-12.8-12.8V50.1h21.1v11.7c0,0,0,0.2,0,0.6v25.7
	C75.9,97,77.8,99.9,88.4,101.2z"/>
<path class="st0" d="M42,25.9h21.1c7.1,0,12.8,5.7,12.8,12.8v12.4H54.8V38.8c0-2.1-0.5-4-1.4-5.8c-0.2-0.5-0.5-0.9-0.8-1.4
	c-0.1-0.1-0.2-0.3-0.3-0.4c-0.4-0.5-0.8-1-1.3-1.5c-0.1-0.1-0.3-0.3-0.4-0.4c-0.2-0.1-0.3-0.3-0.5-0.4c-0.1-0.1-0.3-0.2-0.4-0.3
	c-0.2-0.1-0.4-0.3-0.5-0.4c-0.2-0.1-0.3-0.2-0.5-0.3c-0.3-0.2-0.6-0.4-1-0.5c-0.4-0.2-0.8-0.4-1.2-0.5c-0.1,0-0.2-0.1-0.3-0.1
	c-0.1,0-0.2-0.1-0.4-0.1c-0.2,0-0.3-0.1-0.5-0.1c-0.3-0.1-0.5-0.1-0.8-0.2c-0.1,0-0.3-0.1-0.4-0.1c-0.1,0-0.2,0-0.3,0
	c-0.2,0-0.3,0-0.5-0.1c-0.1,0-0.2,0-0.3,0c-0.2,0-0.3,0-0.5,0C42.4,25.9,42.2,25.9,42,25.9z"/>
<path class="st0" d="M33.6,45.8V25.9c4.6,0,8.3,0,8.3,0c0.2,0,0.4,0,0.7,0c0.2,0,0.3,0,0.5,0c0.1,0,0.2,0,0.3,0c0.2,0,0.3,0,0.5,0.1
	c0.1,0,0.2,0,0.3,0c0.1,0,0.3,0,0.4,0.1c0.3,0,0.5,0.1,0.8,0.2c0.2,0,0.3,0.1,0.5,0.1c0.1,0,0.2,0.1,0.4,0.1c0.1,0,0.2,0.1,0.3,0.1
	c0.4,0.2,0.8,0.3,1.2,0.5c0.3,0.2,0.7,0.3,1,0.5c0.2,0.1,0.4,0.2,0.5,0.3c0.2,0.1,0.4,0.3,0.5,0.4c0.1,0.1,0.3,0.2,0.4,0.3
	c0.2,0.1,0.3,0.3,0.5,0.4c0.1,0.1,0.3,0.3,0.4,0.4c0.5,0.5,0.9,1,1.3,1.5c0.1,0.1,0.2,0.3,0.3,0.4c0.3,0.4,0.6,0.9,0.8,1.4h-7
	C39.4,33,33.6,38.7,33.6,45.8z"/>
<path class="st0" d="M0,0h12.5c4.6,0,8.3,0,8.3,0c7.1,0,12.8,5.7,12.8,12.8v38.3H12.5V39.4c0,0,0-0.2,0-0.6V13
	C12.5,4.2,10.6,1.3,0,0z"/>
<path class="st0" d="M104.5,30.3h3.6v4.4h-3.6V30.3z M104.6,40.5h3.5v25.8h-3.5V40.5z"/>
<path class="st0" d="M116.5,40.5h3.4v3.8c0,1.1-0.1,2.1-0.1,2.1h0.1c0.9-2.4,4.2-6.5,10.3-6.5c6.4,0,8.6,3.6,8.6,10v16.4h-3.5V50.8
	c0-4.1-0.6-7.6-5.6-7.6c-4.4,0-8.2,3-9.4,7.3c-0.3,1.1-0.4,2.3-0.4,3.5v12.4h-3.5V40.5z"/>
<path class="st0" d="M146.8,60.7c0,0,2.9,3.1,7.7,3.1c2.8,0,5.2-1.4,5.2-4.1c0-5.6-13.9-4.3-13.9-12.7c0-4.6,4.2-7.1,8.8-7.1
	c5.4,0,8,2.8,8,2.8l-1.6,2.7c0,0-2.2-2.4-6.5-2.4c-2.6,0-5.1,1.1-5.1,4c0,5.7,13.9,4.2,13.9,12.7c0,4.2-3.6,7.2-8.8,7.2
	c-6.3,0-9.5-3.7-9.5-3.7L146.8,60.7z"/>
<path class="st0" d="M170.7,43.8h-3.4v-2.9h3.4v-7.4h3.4v7.4h6.5v2.9h-6.5v12.8c0,6.1,3.8,6.8,5.8,6.8c0.7,0,1.2-0.1,1.2-0.1v3.1
	c0,0-0.6,0.1-1.5,0.1c-3,0-9-1-9-9.6V43.8z"/>
<path class="st0" d="M186.9,40.5h3.4v4.6c0,1.1-0.1,2.1-0.1,2.1h0.1c1.2-3.9,4.1-6.9,8.2-6.9c0.7,0,1.4,0.2,1.4,0.2v3.4
	c0,0-0.6-0.1-1.3-0.1c-3.6,0-6.4,2.9-7.5,6.7c-0.5,1.6-0.7,3.4-0.7,5v10.9h-3.5V40.5z"/>
<path class="st0" d="M204.8,40.5h3.5V56c0,4.1,0.6,7.6,5.6,7.6c5.9,0,9.5-5.2,9.5-10.8V40.5h3.5v25.8h-3.4v-3.8
	c0-1.1,0.1-2.1,0.1-2.1h-0.1c-1,2.5-4.4,6.5-10.1,6.5c-6.1,0-8.6-3.3-8.6-10V40.5z"/>
<path class="st0" d="M247.1,39.9c6.3,0,9.4,3.7,9.4,3.7l-1.8,2.6c0,0-2.9-3.1-7.5-3.1c-5.6,0-10.1,4.2-10.1,10.4
	c0,6.1,4.5,10.4,10.2,10.4c5.2,0,8.3-3.6,8.3-3.6l1.6,2.7c0,0-3.5,4.1-10.1,4.1c-7.6,0-13.6-5.5-13.6-13.5
	C233.6,45.5,239.5,39.9,247.1,39.9z"/>
<path class="st0" d="M264.5,43.8h-3.4v-2.9h3.4v-7.4h3.4v7.4h6.5v2.9H268v12.8c0,6.1,3.8,6.8,5.8,6.8c0.7,0,1.2-0.1,1.2-0.1v3.1
	c0,0-0.6,0.1-1.5,0.1c-3,0-9-1-9-9.6V43.8z"/>
<path class="st0" d="M292.5,39.9c7.5,0,13.7,5.7,13.7,13.4c0,7.8-6.1,13.7-13.7,13.7s-13.7-5.9-13.7-13.7
	C278.8,45.6,284.9,39.9,292.5,39.9z M292.5,63.8c5.5,0,10.1-4.5,10.1-10.5c0-5.9-4.5-10.2-10.1-10.2s-10.1,4.4-10.1,10.2
	C282.4,59.3,287,63.8,292.5,63.8z"/>
<path class="st0" d="M312.7,40.5h3.4v4.6c0,1.1-0.1,2.1-0.1,2.1h0.1c1.2-3.9,4.1-6.9,8.2-6.9c0.7,0,1.4,0.2,1.4,0.2v3.4
	c0,0-0.6-0.1-1.3-0.1c-3.6,0-6.4,2.9-7.5,6.7c-0.5,1.6-0.7,3.4-0.7,5v10.9h-3.5V40.5z"/>
<path class="st0" d="M331.4,29.9h6.6v15.5h16.7V29.9h6.6v36.4h-6.6V51H338v15.3h-6.6V29.9z"/>
<path class="st0" d="M386.8,29.3c10.8,0,18.9,8.2,18.9,18.6c0,4.4-1.6,8.4-4,11.5l4.1,3.7l-3.8,4.2l-4.1-4c-3,2.3-6.9,3.6-11.1,3.6
	c-10.7,0-18.8-8.4-18.8-19C368,37.4,376.1,29.3,386.8,29.3z M386.8,60.9c2.2,0,4.6-0.7,6.4-1.9l-4.1-3.9l3.8-4.2l4,4
	c1.2-2,2-4.5,2-7c0-7.2-5.3-12.6-12.1-12.6c-6.7,0-12,5.3-12,12.6C374.8,55.4,380.1,60.9,386.8,60.9z"/>
</svg>
