<?xml version="1.0" encoding="utf-8"?>
<!-- Generator: Adobe Illustrator 23.0.1, SVG Export Plug-In . SVG Version: 6.00 Build 0)  -->
<svg version="1.1" id="Layer_1" xmlns="http://www.w3.org/2000/svg" xmlns:xlink="http://www.w3.org/1999/xlink" x="0px" y="0px"
	 viewBox="0 0 250 250" style="enable-background:new 0 0 250 250;" xml:space="preserve">
<style type="text/css">
	.st0{fill-rule:evenodd;clip-rule:evenodd;}
</style>
<path class="st0" d="M206.7,153.8c1.7-2.6,3.4-5.2,5.1-7.9c4.7-7.8,4.7-7.8-1.7-14.3c-2.8-2.9-5.6-5.8-8.6-8.8
	c2.7-2.8,5.2-5.3,8.1-8.4c2.1,3.4,3.8,6.5,6,9.3c1.4,1.8,3.2,3.5,5.2,4.5c3.2,1.6,6.8,2.6,10.7,4.1
	C224.2,140.8,216,147.8,206.7,153.8z"/>
<path class="st0" d="M193.9,118c-19.8,16.8-42.6,25.6-68.6,25.6c-26.2,0-48.9-8.9-68.6-25.6c-6.5,6.8-12.9,13.5-19.3,20.1
	c47.6,44.2,129,43.6,175.8,0C206.8,131.4,200.3,124.7,193.9,118z M80.7,145.7c-0.7,1.5-2,2.2-3.5,2.3l0,0c0,0,0.4,0.4,0.4,1l0.1,2.1
	c0,0.3,0.2,0.5,0.6,0.7l0.4,0.2l-1,2.1l-2-0.9c-1-0.4-1.3-0.8-1.3-1.6l-0.1-3.4c0-0.5-0.2-0.7-0.8-1l-0.6-0.3l-1,2l1.3,0.6l-1,2.1
	l-5.7-2.5l1-2.1l1.4,0.6l3.6-7.4l-1.4-0.6l1-2.1l5.5,2.5c0.9,0.4,1.7,0.8,2.3,1.3C81.2,142.5,81.6,144,80.7,145.7z M86.3,157.3
	c-3.9-1.2-5.8-4.8-4.6-8.4c1.2-3.5,4.9-5.4,8.8-4.2c3.9,1.2,5.8,4.8,4.7,8.3C94,156.5,90.2,158.5,86.3,157.3z M107.9,161.8l-5.5-1
	l0.4-2.3l1.1,0.2l-0.2-1.8l-3.4-0.6l-0.8,1.6l1.1,0.2l-0.4,2.3l-5.5-1l0.4-2.3l1.1,0.2l5.6-9.7l3.8,0.7l1.6,11l1.1,0.2L107.9,161.8z
	 M122.3,162.8l-2.2-0.1c-1.1-0.1-1.5-0.3-1.8-1.1l-1.4-3.1c-0.2-0.4-0.4-0.6-1.1-0.6l-0.7,0l-0.1,2.2l1.4,0.1l-0.2,2.3l-6.2-0.4
	l0.2-2.3l1.5,0.1l0.6-8.2l-1.5-0.1l0.2-2.3l6,0.4c1,0.1,1.9,0.2,2.7,0.4c1.6,0.6,2.6,1.9,2.4,3.8c-0.1,1.7-1,2.8-2.4,3.4l0,0
	c0,0,0.5,0.2,0.8,0.8l0.9,2c0.1,0.3,0.4,0.4,0.8,0.5l0.5,0L122.3,162.8z M137.8,161.7c-0.6,0.3-1.2,0.4-1.9,0.4l-6.1,0.5l-0.1-1
	l1.7-0.1l-0.9-10.5l-1.7,0.1l-0.1-1l5.9-0.5c0.9-0.1,1.7,0,2.3,0.2c1,0.4,1.7,1.3,1.8,2.6c0.1,1.3-0.5,2.3-1.4,2.9l0,0
	c1.4,0.3,2.3,1.4,2.5,2.9C139.9,159.8,139,161.1,137.8,161.7z M142.9,161.3l-0.2-1l1.7-0.3l-1.8-10.4l-1.7,0.3l-0.2-1l4.7-0.8l0.2,1
	l-1.7,0.3l1.8,10.4l1.7-0.3l0.2,1L142.9,161.3z M159.9,157.8c-1.1,0.3-1.4,0.1-2-0.5l-3.8-3.8c-0.3-0.3-0.6-0.4-1.2-0.3l-1.3,0.3
	l1.3,4.9l1.7-0.4l0.3,1l-4.6,1.1l-0.3-1l1.7-0.4l-2.7-10.2l-1.7,0.4l-0.3-1l4.5-1.1l0.3,1l-1.6,0.4l1.1,4.3l1.9-0.5l2-5.1l-1.3,0.3
	l-0.3-1l4-1l0.3,1l-1.3,0.3l-2.3,5.6l0,0c0,0,0.3,0.1,0.8,0.6l3.7,3.6c0.3,0.3,0.6,0.4,1.1,0.3l0.6-0.2l0.3,1L159.9,157.8z
	 M163.1,156.9l-0.4-1l1.6-0.6l-3.8-9.9L159,146l-0.4-1l8.7-3.1l0.9,2.5l-1.1,0.4l-0.6-1.5l-4.8,1.7l1.7,4.4l4.7-1.6l0.4,1l-4.7,1.6
	l1.7,4.5l5.1-1.8l-0.6-1.5l1.1-0.4l1,2.5L163.1,156.9z M178.8,151.1c-1.7,0.8-4.1,1-4.9-0.6l-0.5-1.1l1.1-0.5l0.4,0.8
	c0.5,1,2,0.9,3.4,0.3c1.5-0.7,2.3-2,1.6-3.3c-0.7-1.5-2.4-1.3-4.3-1.2c-1.8,0.2-3.8,0.3-4.8-1.7c-1-2,0.2-3.7,2.1-4.6
	c1.7-0.8,3.7-1,4.3,0.2l0.6,1.2l-1.1,0.5l-0.4-0.8c-0.4-0.7-1.8-0.5-2.9-0.1c-1.3,0.6-2.1,1.7-1.5,3c0.7,1.4,2.2,1.2,3.9,1.1
	c2-0.2,4.1-0.3,5.1,1.8C182,148.1,180.9,150,178.8,151.1z"/>
<path class="st0" d="M135.8,161.1l-3.1,0.3l-0.4-5l3.3-0.3c1.5-0.1,2.7,0.8,2.8,2.3c0.1,1.1-0.4,2-1.2,2.4
	C136.8,160.9,136.2,161,135.8,161.1z"/>
<path class="st0" d="M135.3,155l-3.2,0.3l-0.4-4.4l2.9-0.2c0.6-0.1,1.2,0,1.6,0.2c0.6,0.3,1,1,1.1,1.8
	C137.5,153.9,136.7,154.9,135.3,155z"/>
<path class="st0" d="M116.7,155.4l-1.5-0.1l0.2-3.3l1.2,0.1c0.6,0,1,0.1,1.3,0.3c0.6,0.3,0.7,0.9,0.6,1.5
	C118.5,155,117.8,155.5,116.7,155.4z"/>
<path class="st0" d="M102.7,151.9c0.4-0.7,0.5-1.3,0.5-1.3l0.1,0c0,0-0.1,0.6,0,1.4l0.2,2.5l-2-0.3L102.7,151.9z"/>
<path class="st0" d="M87.2,154.6c-1.9-0.6-2.9-2.6-2.2-4.8c0.7-2.1,2.7-3.1,4.6-2.6c1.9,0.6,2.9,2.6,2.2,4.6
	C91.1,154.1,89.1,155.2,87.2,154.6z"/>
<path class="st0" d="M75.3,145.5l-1.4-0.6l1.5-3l1.1,0.5c0.5,0.2,0.9,0.5,1.1,0.7c0.4,0.5,0.3,1,0,1.6
	C77.1,145.7,76.3,145.9,75.3,145.5z"/>
<path class="st0" d="M35.6,140.3c2.8,4.5,5.5,9.1,8.2,13.7c-0.2,0.2-0.4,0.5-0.6,0.7c-8-7.1-16.1-14.3-24.6-21.8
	c5.5-2.3,10.7-3.3,14.3-6.2c3.5-2.9,5.3-7.7,8.2-12c2.8,2.8,5.4,5.4,8.2,8.3c-4.4,4.5-8.6,8.9-13,13.2
	C34.7,137.4,34.5,138.5,35.6,140.3z"/>
<path class="st0" d="M41.1,144.5c4,2.9,8.1,5.8,12.2,8.8c-1,1.5-2,3-3.3,5c-3.3-4.7-6.3-9-9.4-13.4
	C40.8,144.7,40.9,144.6,41.1,144.5z"/>
<path class="st0" d="M209.6,145.3c-2.9,4.2-5.7,8.3-8.9,13c-1.4-1.9-2.4-3.4-3.5-4.9c4.1-2.9,7.9-5.7,11.8-8.4
	C209.2,145,209.4,145.1,209.6,145.3z"/>
<path d="M168.7,81.6c0.6-0.2,1.8-0.5,2.6-1c0.1,1.6,0.4,6-2.7,8.3c-0.4-0.3-0.9-0.5-1.2-0.7L168.7,81.6L168.7,81.6z M117.1,61.9
	c0.9-1.3,4.8-4.1,6.3-4.7c-21.7,29.3,20.8,48,11.9,73.1c7.1-3.9,10.8-10,11-16.5c0.6-17.2-25.9-21.8-11.7-47.1
	c-5.4,17-0.5,23,11.7,32c-2.2-5.3,0.9-13,7.4-17l-9.8-4.1l13.5,3.4c-6.1,3.1-11.9,13.4-6.9,19c3.3,3.7,9.8,1.3,12.6,8.3
	c3.9-2.3,4.1-5.1,4.4-8.8c0.9,1.4,1.1,3.7,0.9,5.1c4.1-3.9,3.6-12.1-2.1-14.7c-1,0.3-2.8,0.8-6.4,2.7c-3.3,1.7-1.8,3.7-6,3.4
	c0,0-1.6-1.5,4.1-4.5c3.6-1.9,6.5-3,7.6-3.3l1.3-6.5c-0.3-0.5-1.1-1.5-2.4-2.5c-1.2-1-3.1-2-4.4-3c-0.5-0.4-1.2-0.5-1.3-0.9
	c1-2.1,6.4-1.4,8.5-1.2c0.5-0.1,1.7-0.4,3.6-0.3c-4.1-3.8-14.6-11.5-19.5-15.3c-0.8-2-2.4-5.4-3.7-6.9c2.9,1.9,4.5,4.9,5,6.1
	l2.8,1.8c1.7-9.8-1.9-26.2-19.8-24.7c2.3,1.9,4.3,5.5,4.8,8.9c-19.1-26.8-58.8-5.3-56.8,18.8C85,59.9,93,51.9,100.1,51
	c-15.4,9.3-30.3,31.2-14.9,49.3c-4.6-15.3,4.7-31.8,15.9-38c-32.9,35.8,0.1,53.1,12.3,73.4c12.1-23.2-32.1-27-15.4-61.5
	c-5.8,22.4,6.2,33.1,17.5,40.6c-10.4-15.7-9.2-33.7-0.2-50c-7.1,6.1-13.3,15.1-12.2,29.8c-3.6-12.5,0.8-23.7,10-31.9
	c-6.2-7.2-5.1-19.2,4.4-21.4c4.9-1.1,10.8,1.8,13,7.1C121,35.5,103,48.7,117.1,61.9L117.1,61.9z M94.2,47.5
	c8.7-13.2,29.2-16.5,39.8-5C120.5,33.7,104.6,38,94.2,47.5L94.2,47.5z M129.6,94.2c-10-15.4-10.7-30.3,5.1-41.2
	C120.8,67.6,124.1,80.6,129.6,94.2L129.6,94.2z M114.4,76.9c1.6,22.4,28.5,38.2,15.8,62.1C127.3,120.3,104.1,106.7,114.4,76.9
	L114.4,76.9z M128,49.7c-2.5,2.4-5.8,0.1-11.8,3.9C114.9,44.7,125.5,45.1,128,49.7L128,49.7z M147,62.1c1.5,0.6,9,9.5,10.1,11.4
	c-3.5-3-6.4-5.6-10.3-8.5l-3,1.3l0.6-1.8l-6.3-1.8l5.2-1.9c2.5-0.9,1.7-2,0.5-3.3C145.9,58.1,147.7,59.2,147,62.1L147,62.1z
	 M146.1,132.8c0.6-2.3,1.3-6.1-0.1-9.5c3.1-5.6,4.5-14,1.8-19.9C159.3,111.7,162.1,127.5,146.1,132.8z"/>
</svg>
